# Blender 3.5.1
# www.blender.org
mtllib beacon_outer.mtl
o Cylinder
v 0.000000 -9.928627 -13.499907
v 0.000000 -2.749974 -9.870693
v 0.000000 13.499907 -13.499907
v 5.166191 -9.928627 -12.472286
v 3.777351 -2.749974 -9.119331
v 5.166191 13.499907 -12.472286
v 9.545876 -9.928627 -9.545876
v 6.979634 -2.749974 -6.979634
v 9.545876 13.499907 -9.545876
v 12.472286 -9.928627 -5.166191
v 9.119331 -2.749974 -3.777351
v 12.472286 13.499907 -5.166191
v 13.499907 -9.928627 -0.000000
v 9.870693 -2.749974 -0.000000
v 13.499907 13.499907 -0.000000
v 12.472286 -9.928627 5.166190
v 9.119331 -2.749974 3.777351
v 12.472286 13.499907 5.166190
v 9.545876 -9.928627 9.545876
v 6.979634 -2.749974 6.979634
v 9.545876 13.499907 9.545876
v 5.166191 -9.928627 12.472286
v 3.777351 -2.749974 9.119331
v 5.166191 13.499907 12.472286
v 0.000000 -9.928627 13.499907
v 0.000000 -2.749974 9.870693
v 0.000000 13.499907 13.499907
v -5.166191 -9.928627 12.472286
v -3.777351 -2.749974 9.119331
v -5.166191 13.499907 12.472286
v -9.545876 -9.928627 9.545876
v -6.979634 -2.749974 6.979634
v -9.545876 13.499907 9.545876
v -12.472286 -9.928627 5.166190
v -9.119331 -2.749974 3.777351
v -12.472286 13.499907 5.166190
v -13.499907 -9.928627 -0.000000
v -9.870693 -2.749974 -0.000000
v -13.499907 13.499907 -0.000000
v -12.472286 -9.928627 -5.166191
v -9.119331 -2.749974 -3.777351
v -12.472286 13.499907 -5.166191
v -9.545876 -9.928627 -9.545876
v -6.979634 -2.749974 -6.979634
v -9.545876 13.499907 -9.545876
v -5.166191 -9.928627 -12.472286
v -3.777351 -2.749974 -9.119331
v -5.166191 13.499907 -12.472286
v 0.000000 13.499907 -9.870693
v -9.870693 13.499907 -0.000000
v 0.000000 13.499907 9.870693
v 9.870693 13.499907 -0.000000
v -6.979634 13.499907 6.979634
v -9.119331 13.499907 3.777351
v -9.119331 13.499907 -3.777351
v -3.777351 13.499907 -9.119331
v 6.979634 13.499907 -6.979634
v 3.777351 13.499907 -9.119331
v -6.979634 13.499907 -6.979634
v -3.777351 13.499907 9.119331
v 3.777351 13.499907 9.119331
v 9.119331 13.499907 3.777351
v 9.119331 13.499907 -3.777351
v 6.979634 13.499907 6.979634
vn 0.1951 -0.0000 -0.9808
vn 0.5556 -0.0000 -0.8315
vn 0.8315 -0.0000 -0.5556
vn 0.9808 -0.0000 -0.1951
vn 0.9808 -0.0000 0.1951
vn 0.8315 -0.0000 0.5556
vn 0.5556 -0.0000 0.8315
vn 0.1951 -0.0000 0.9808
vn -0.1951 -0.0000 0.9808
vn -0.5556 -0.0000 0.8315
vn -0.8315 -0.0000 0.5556
vn -0.9808 -0.0000 0.1951
vn -0.9808 -0.0000 -0.1951
vn -0.8315 -0.0000 -0.5556
vn -0.0000 1.0000 -0.0000
vn -0.5556 -0.0000 -0.8315
vn -0.1951 -0.0000 -0.9808
vn -0.0000 -1.0000 -0.0000
vt 1.000000 0.500000
vt 0.000000 0.500000
vt 0.750000 0.490000
vt 1.000000 0.500000
vt 0.000000 0.500000
vt 0.750000 0.490000
vt 1.000000 1.000000
vt 0.250000 0.490000
vt 0.000000 1.000000
vt 0.937500 0.500000
vt 0.841844 0.471731
vt 0.937500 0.500000
vt 0.841844 0.471731
vt 0.937500 1.000000
vt 0.341844 0.471731
vt 0.875000 0.500000
vt 0.919706 0.419706
vt 0.875000 0.500000
vt 0.919706 0.419706
vt 0.875000 1.000000
vt 0.419706 0.419706
vt 0.812500 0.500000
vt 0.971731 0.341844
vt 0.812500 0.500000
vt 0.971731 0.341844
vt 0.812500 1.000000
vt 0.471731 0.341844
vt 0.750000 0.500000
vt 0.990000 0.250000
vt 0.750000 0.500000
vt 0.990000 0.250000
vt 0.750000 1.000000
vt 0.490000 0.250000
vt 0.687500 0.500000
vt 0.971731 0.158156
vt 0.687500 0.500000
vt 0.971731 0.158156
vt 0.687500 1.000000
vt 0.471731 0.158156
vt 0.625000 0.500000
vt 0.919706 0.080294
vt 0.625000 0.500000
vt 0.919706 0.080294
vt 0.625000 1.000000
vt 0.419706 0.080294
vt 0.562500 0.500000
vt 0.841844 0.028269
vt 0.562500 0.500000
vt 0.841844 0.028269
vt 0.562500 1.000000
vt 0.341844 0.028269
vt 0.500000 0.500000
vt 0.750000 0.010000
vt 0.500000 0.500000
vt 0.750000 0.010000
vt 0.500000 1.000000
vt 0.250000 0.010000
vt 0.437500 0.500000
vt 0.658156 0.028269
vt 0.437500 0.500000
vt 0.658156 0.028269
vt 0.437500 1.000000
vt 0.158156 0.028269
vt 0.375000 0.500000
vt 0.580294 0.080294
vt 0.375000 0.500000
vt 0.580294 0.080294
vt 0.375000 1.000000
vt 0.080294 0.080294
vt 0.312500 0.500000
vt 0.528269 0.158156
vt 0.312500 0.500000
vt 0.528269 0.158156
vt 0.312500 1.000000
vt 0.028269 0.158156
vt 0.250000 0.500000
vt 0.510000 0.250000
vt 0.250000 0.500000
vt 0.510000 0.250000
vt 0.250000 1.000000
vt 0.010000 0.250000
vt 0.187500 0.500000
vt 0.528269 0.341844
vt 0.187500 0.500000
vt 0.528269 0.341844
vt 0.187500 1.000000
vt 0.028269 0.341844
vt 0.125000 0.500000
vt 0.580294 0.419706
vt 0.125000 0.500000
vt 0.580294 0.419706
vt 0.080294 0.419706
vt 0.125000 1.000000
vt 0.062500 0.500000
vt 0.658156 0.471731
vt 0.062500 0.500000
vt 0.658156 0.471731
vt 0.158156 0.471731
vt 0.062500 1.000000
vt 0.250000 0.425480
vt 1.000000 0.974306
vt 0.000000 0.974306
vt 0.074520 0.250000
vt 0.250000 0.974306
vt 0.250000 0.074520
vt 0.500000 0.974306
vt 0.425480 0.250000
vt 0.750000 0.974306
vt 0.125917 0.125917
vt 0.375000 0.974306
vt 0.087877 0.182847
vt 0.312500 0.974306
vt 0.087877 0.317153
vt 0.187500 0.974306
vt 0.182847 0.412122
vt 0.062500 0.974306
vt 0.374083 0.374083
vt 0.875000 0.974306
vt 0.317153 0.412123
vt 0.937500 0.974306
vt 0.125917 0.374083
vt 0.125000 0.974306
vt 0.182847 0.087877
vt 0.437500 0.974306
vt 0.317153 0.087877
vt 0.562500 0.974306
vt 0.412123 0.182847
vt 0.687500 0.974306
vt 0.412123 0.317153
vt 0.812500 0.974306
vt 0.374083 0.125917
vt 0.625000 0.974306
s 0
f 1/1/1 3/7/1 6/14/1 4/10/1
f 4/10/2 6/14/2 9/20/2 7/16/2
f 7/16/3 9/20/3 12/26/3 10/22/3
f 10/22/4 12/26/4 15/32/4 13/28/4
f 13/28/5 15/32/5 18/38/5 16/34/5
f 16/34/6 18/38/6 21/44/6 19/40/6
f 19/40/7 21/44/7 24/50/7 22/46/7
f 22/46/8 24/50/8 27/56/8 25/52/8
f 25/52/9 27/56/9 30/62/9 28/58/9
f 28/58/10 30/62/10 33/68/10 31/64/10
f 31/64/11 33/68/11 36/74/11 34/70/11
f 34/70/12 36/74/12 39/80/12 37/76/12
f 37/76/13 39/80/13 42/86/13 40/82/13
f 40/82/14 42/86/14 45/93/14 43/88/14
f 45/92/15 42/87/15 39/81/15 36/75/15 33/69/15 30/63/15 27/57/15 24/51/15 21/45/15 64/131/15 61/125/15 51/105/15 60/123/15 53/109/15 54/111/15 50/103/15 55/113/15 59/121/15
f 21/45/15 18/39/15 15/33/15 12/27/15 9/21/15 6/15/15 3/8/15 48/98/15 45/92/15 59/121/15 56/115/15 49/100/15 58/119/15 57/117/15 63/129/15 52/107/15 62/127/15 64/131/15
f 43/88/16 45/93/16 48/99/16 46/94/16
f 46/94/17 48/99/17 3/9/17 1/2/17
f 46/95/18 1/3/18 4/11/18 7/17/18 10/23/18 13/29/18 16/35/18 19/41/18 22/47/18 25/53/18 28/59/18 31/65/18 34/71/18 37/77/18 40/83/18 43/89/18
f 49/101/9 2/4/9 5/12/9 58/120/9
f 58/120/10 5/12/10 8/18/10 57/118/10
f 8/18/11 11/24/11 63/130/11 57/118/11
f 11/24/12 14/30/12 52/108/12 63/130/12
f 14/30/13 17/36/13 62/128/13 52/108/13
f 17/36/14 20/42/14 64/132/14 62/128/14
f 20/42/16 23/48/16 61/126/16 64/132/16
f 23/48/17 26/54/17 51/106/17 61/126/17
f 26/54/1 29/60/1 60/124/1 51/106/1
f 29/60/2 32/66/2 53/110/2 60/124/2
f 53/110/3 32/66/3 35/72/3 54/112/3
f 54/112/4 35/72/4 38/78/4 50/104/4
f 50/104/5 38/78/5 41/84/5 55/114/5
f 55/114/6 41/84/6 44/90/6 59/122/6
f 59/122/7 44/90/7 47/96/7 56/116/7
f 56/116/8 47/96/8 2/5/8 49/102/8
f 41/85/15 38/79/15 35/73/15 32/67/15 29/61/15 26/55/15 23/49/15 20/43/15 17/37/15 14/31/15 11/25/15 8/19/15 5/13/15 2/6/15 47/97/15 44/91/15
