# Blender 3.5.1
# www.blender.org
mtllib grafika_ujowy_statek.mtl
o Cube
v 2.344190 0.249905 -3.153338
v 2.344190 -0.249905 -3.153338
v 2.344190 0.249905 3.153338
v 2.344190 -0.249905 3.153338
v -2.344190 0.249905 -3.153338
v -2.344190 -0.249905 -3.153338
v -2.344190 0.249905 3.153338
v -2.344190 -0.249905 3.153338
vn -0.0000 1.0000 -0.0000
vn -0.0000 -0.0000 1.0000
vn -1.0000 -0.0000 -0.0000
vn -0.0000 -1.0000 -0.0000
vn 1.0000 -0.0000 -0.0000
vn -0.0000 -0.0000 -1.0000
vt 0.625000 0.500000
vt 0.375000 0.500000
vt 0.625000 0.750000
vt 0.375000 0.750000
vt 0.875000 0.500000
vt 0.625000 0.250000
vt 0.125000 0.500000
vt 0.375000 0.250000
vt 0.875000 0.750000
vt 0.625000 1.000000
vt 0.625000 0.000000
vt 0.375000 1.000000
vt 0.375000 0.000000
vt 0.125000 0.750000
s 0
usemtl Material
f 1/1/1 5/5/1 7/9/1 3/3/1
f 4/4/2 3/3/2 7/10/2 8/12/2
f 8/13/3 7/11/3 5/6/3 6/8/3
f 6/7/4 2/2/4 4/4/4 8/14/4
f 2/2/5 1/1/5 3/3/5 4/4/5
f 6/8/6 5/6/6 1/1/6 2/2/6
o Cube.001
v -1.858804 -0.085492 2.395575
v -1.858804 2.289563 2.395575
v -1.858804 -0.085492 0.460176
v -1.858804 2.289563 0.460176
v 1.858804 -0.085492 2.395575
v 1.858804 2.289563 2.395575
v 1.858804 -0.085492 0.460176
v 1.858804 2.289563 0.460176
vn -1.0000 -0.0000 -0.0000
vn -0.0000 -0.0000 -1.0000
vn 1.0000 -0.0000 -0.0000
vn -0.0000 -0.0000 1.0000
vn -0.0000 -1.0000 -0.0000
vn -0.0000 1.0000 -0.0000
vt 0.375000 0.000000
vt 0.375000 1.000000
vt 0.125000 0.750000
vt 0.625000 0.000000
vt 0.625000 1.000000
vt 0.875000 0.750000
vt 0.375000 0.250000
vt 0.125000 0.500000
vt 0.625000 0.250000
vt 0.875000 0.500000
vt 0.375000 0.750000
vt 0.625000 0.750000
vt 0.375000 0.500000
vt 0.625000 0.500000
s 0
f 9/15/7 10/18/7 12/23/7 11/21/7
f 11/21/8 12/23/8 16/28/8 15/27/8
f 15/27/9 16/28/9 14/26/9 13/25/9
f 13/25/10 14/26/10 10/19/10 9/16/10
f 11/22/11 15/27/11 13/25/11 9/17/11
f 16/28/12 12/24/12 10/20/12 14/26/12
o Cube.002
v 1.226388 0.005285 0.618063
v 1.226388 1.561165 0.618063
v 1.226388 0.005285 -2.565512
v 1.226388 1.561165 -2.565512
v 1.630847 0.005285 0.618063
v 1.630847 1.561165 0.618063
v 1.630847 0.005285 -2.565512
v 1.630847 1.561165 -2.565512
v -1.226388 0.005285 0.618063
v -1.226388 1.561165 0.618063
v -1.226388 0.005285 -2.565512
v -1.226388 1.561165 -2.565512
v -1.630847 0.005285 0.618063
v -1.630847 1.561165 0.618063
v -1.630847 0.005285 -2.565512
v -1.630847 1.561165 -2.565512
vn -1.0000 -0.0000 -0.0000
vn -0.0000 -0.0000 -1.0000
vn 1.0000 -0.0000 -0.0000
vn -0.0000 -0.0000 1.0000
vn -0.0000 -1.0000 -0.0000
vn -0.0000 1.0000 -0.0000
vt 0.375000 0.000000
vt 0.375000 1.000000
vt 0.125000 0.750000
vt 0.625000 0.000000
vt 0.625000 1.000000
vt 0.875000 0.750000
vt 0.375000 0.250000
vt 0.125000 0.500000
vt 0.625000 0.250000
vt 0.875000 0.500000
vt 0.375000 0.750000
vt 0.625000 0.750000
vt 0.375000 0.500000
vt 0.625000 0.500000
vt 0.375000 0.000000
vt 0.375000 1.000000
vt 0.125000 0.750000
vt 0.625000 0.000000
vt 0.625000 1.000000
vt 0.875000 0.750000
vt 0.375000 0.250000
vt 0.125000 0.500000
vt 0.625000 0.250000
vt 0.875000 0.500000
vt 0.375000 0.750000
vt 0.625000 0.750000
vt 0.375000 0.500000
vt 0.625000 0.500000
s 0
f 17/29/13 18/32/13 20/37/13 19/35/13
f 19/35/14 20/37/14 24/42/14 23/41/14
f 23/41/15 24/42/15 22/40/15 21/39/15
f 21/39/16 22/40/16 18/33/16 17/30/16
f 19/36/17 23/41/17 21/39/17 17/31/17
f 24/42/18 20/38/18 18/34/18 22/40/18
f 25/43/15 27/49/15 28/51/15 26/46/15
f 27/49/14 31/55/14 32/56/14 28/51/14
f 31/55/13 29/53/13 30/54/13 32/56/13
f 29/53/16 25/44/16 26/47/16 30/54/16
f 27/50/17 25/45/17 29/53/17 31/55/17
f 32/56/18 30/54/18 26/48/18 28/52/18
o Cube.003
v -1.908620 1.524642 0.482378
v -1.908620 2.021590 0.482378
v -1.908620 1.524642 -2.266961
v -1.908620 2.021590 -2.266961
v 1.908620 1.524642 0.482378
v 1.908620 2.021590 0.482378
v 1.908620 1.524642 -2.266961
v 1.908620 2.021590 -2.266961
vn -1.0000 -0.0000 -0.0000
vn -0.0000 -0.0000 -1.0000
vn 1.0000 -0.0000 -0.0000
vn -0.0000 -0.0000 1.0000
vn -0.0000 -1.0000 -0.0000
vn -0.0000 1.0000 -0.0000
vt 0.375000 0.000000
vt 0.375000 1.000000
vt 0.125000 0.750000
vt 0.625000 0.000000
vt 0.625000 1.000000
vt 0.875000 0.750000
vt 0.375000 0.250000
vt 0.125000 0.500000
vt 0.625000 0.250000
vt 0.875000 0.500000
vt 0.375000 0.750000
vt 0.625000 0.750000
vt 0.375000 0.500000
vt 0.625000 0.500000
s 0
f 33/57/19 34/60/19 36/65/19 35/63/19
f 35/63/20 36/65/20 40/70/20 39/69/20
f 39/69/21 40/70/21 38/68/21 37/67/21
f 37/67/22 38/68/22 34/61/22 33/58/22
f 35/64/23 39/69/23 37/67/23 33/59/23
f 40/70/24 36/66/24 34/62/24 38/68/24
