# Blender 3.5.1
# www.blender.org
mtllib asteroid.mtl
o Cube.001
v -8.768458 -8.909971 8.510616
v -9.074632 13.477883 11.606400
v -11.028645 -9.984880 -11.006960
v -14.090582 12.829708 -14.556013
v 10.904874 -8.066250 11.271403
v 10.926558 13.909062 9.221799
v 11.326469 -8.700624 -12.953177
v 12.310182 13.130934 -12.823980
v -12.086123 -11.673544 -3.642550
v -12.624112 -12.548243 3.712340
v -11.842585 15.477015 6.640253
v -12.374793 15.516328 -4.631804
v 12.547008 -9.996716 4.155947
v 12.960873 -9.722880 -3.837570
v 12.100126 15.193935 -5.882880
v 12.802069 13.855720 5.254060
v 4.341396 -11.672298 -10.654156
v -3.011869 -11.242441 -12.034166
v -5.626950 17.077629 -13.718941
v 2.849728 16.760201 -11.628513
v -3.235411 -8.271151 13.401929
v 2.070909 -12.150307 11.852168
v 3.908341 16.486919 11.715237
v -3.428051 14.448575 12.296090
v -2.037740 24.118879 -4.358461
v 4.030500 24.028996 -6.546341
v -4.111193 23.813841 1.633520
v 2.327216 25.218618 2.513092
v 10.046633 -18.266500 -4.026167
v 3.216145 -19.500992 -3.544530
v 10.347139 -19.086662 4.277024
v 0.743951 -19.430183 5.715527
v -11.400312 -0.941677 12.177646
v -10.886337 1.285578 -10.114066
v 12.390257 0.880050 -12.101121
v 12.961350 1.722438 11.576203
v 12.780020 1.577321 -3.867415
v 10.908701 1.134570 4.493941
v -12.743815 0.099468 5.371939
v -12.596938 0.528431 -4.198132
v 6.051631 2.542649 15.903357
v -4.169861 5.266462 15.248990
v -3.173582 -0.675298 -11.318574
v 6.304085 1.587080 -14.112707
vn -0.9939 -0.1092 0.0136
vn 0.0726 0.0732 -0.9947
vn 0.9999 0.0046 -0.0163
vn -0.3687 0.1840 0.9112
vn 0.5860 -0.4551 0.6704
vn -0.3155 0.7330 0.6027
vn -0.5346 0.8045 -0.2588
vn -0.6897 0.7225 -0.0472
vn 0.5762 -0.5975 -0.5577
vn 0.9604 -0.2785 -0.0120
vn 0.9995 0.0276 -0.0169
vn 0.9975 -0.0433 0.0559
vn -0.9323 0.0928 0.3496
vn -0.9991 0.0364 0.0193
vn -0.4458 -0.8866 -0.1237
vn 0.0919 -0.9953 -0.0311
vn -0.3445 -0.8417 -0.4158
vn 0.0847 -0.6765 -0.7315
vn 0.7325 0.6795 0.0413
vn -0.1131 0.9898 -0.0866
vn 0.4664 0.6801 -0.5655
vn 0.0151 0.7078 -0.7063
vn 0.5462 0.6938 0.4694
vn -0.1931 0.7143 0.6727
vn -0.4413 -0.5808 0.6840
vn 0.0004 -0.6446 0.7646
vn 0.4767 0.2845 0.8318
vn 0.0075 0.2954 0.9553
vn 0.0098 -0.2256 -0.9742
vn -0.0387 -0.0044 -0.9992
vn -0.0715 -0.1087 -0.9915
vn -0.1255 0.0728 -0.9894
vn -0.0292 -0.2014 0.9791
vn 0.3344 -0.2444 0.9102
vn -0.9988 -0.0235 -0.0422
vn -0.8680 -0.2296 0.4403
vn 0.9869 0.0781 0.1413
vn 0.9925 -0.0374 -0.1165
vn -0.3904 -0.2889 0.8742
vn 0.9995 -0.0192 -0.0255
vn -0.0023 -0.1131 -0.9936
vn -0.9784 -0.0124 -0.2062
vt 0.125000 0.750000
vt 0.375000 0.000000
vt 0.375000 1.000000
vt 0.625000 1.000000
vt 0.875000 0.750000
vt 0.625000 0.000000
vt 0.125000 0.500000
vt 0.375000 0.250000
vt 0.875000 0.500000
vt 0.625000 0.250000
vt 0.375000 0.750000
vt 0.625000 0.750000
vt 0.375000 0.500000
vt 0.625000 0.500000
vt 0.125000 0.583333
vt 0.375000 0.166667
vt 0.125000 0.666667
vt 0.375000 0.083333
vt 0.875000 0.666667
vt 0.625000 0.083333
vt 0.875000 0.583333
vt 0.625000 0.166667
vt 0.375000 0.666667
vt 0.375000 0.583333
vt 0.625000 0.583333
vt 0.625000 0.666667
vt 0.291667 0.500000
vt 0.375000 0.416667
vt 0.208333 0.500000
vt 0.375000 0.333333
vt 0.791667 0.500000
vt 0.625000 0.333333
vt 0.708333 0.500000
vt 0.625000 0.416667
vt 0.208333 0.750000
vt 0.375000 0.916667
vt 0.291667 0.750000
vt 0.375000 0.833333
vt 0.708333 0.750000
vt 0.625000 0.833333
vt 0.791667 0.750000
vt 0.625000 0.916667
vt 0.791667 0.583333
vt 0.708333 0.583333
vt 0.791667 0.666667
vt 0.708333 0.666667
vt 0.291667 0.583333
vt 0.208333 0.583333
vt 0.291667 0.666667
vt 0.208333 0.666667
vt 0.500000 0.000000
vt 0.500000 1.000000
vt 0.500000 0.250000
vt 0.500000 0.500000
vt 0.500000 0.750000
vt 0.500000 0.583333
vt 0.500000 0.666667
vt 0.500000 0.083333
vt 0.500000 0.166667
vt 0.500000 0.833333
vt 0.500000 0.916667
vt 0.500000 0.333333
vt 0.500000 0.416667
s 0
f 40/59/1 12/22/1 4/10/1 34/53/1
f 44/63/2 20/34/2 8/14/2 35/54/2
f 38/57/3 16/26/3 6/12/3 36/55/3
f 42/61/4 24/42/4 2/4/4 33/52/4
f 31/49/5 13/23/5 5/11/5 22/37/5
f 27/45/6 11/19/6 2/5/6 24/41/6
f 19/31/7 4/9/7 12/21/7 25/43/7
f 25/43/8 12/21/8 11/19/8 27/45/8
f 17/27/9 7/13/9 14/24/9 29/47/9
f 29/47/10 14/24/10 13/23/10 31/49/10
f 35/54/11 8/14/11 15/25/11 37/56/11
f 37/56/12 15/25/12 16/26/12 38/57/12
f 33/51/13 2/6/13 11/20/13 39/58/13
f 39/58/14 11/20/14 12/22/14 40/59/14
f 9/15/15 30/48/15 32/50/15 10/17/15
f 30/48/16 29/47/16 31/49/16 32/50/16
f 3/7/17 18/29/17 30/48/17 9/15/17
f 18/29/18 17/27/18 29/47/18 30/48/18
f 15/25/19 26/44/19 28/46/19 16/26/19
f 26/44/20 25/43/20 27/45/20 28/46/20
f 8/14/21 20/33/21 26/44/21 15/25/21
f 20/33/22 19/31/22 25/43/22 26/44/22
f 16/26/23 28/46/23 23/39/23 6/12/23
f 28/46/24 27/45/24 24/41/24 23/39/24
f 10/17/25 32/50/25 21/35/25 1/1/25
f 32/50/26 31/49/26 22/37/26 21/35/26
f 36/55/27 6/12/27 23/40/27 41/60/27
f 41/60/28 23/40/28 24/42/28 42/61/28
f 34/53/29 4/10/29 19/32/29 43/62/29
f 43/62/30 19/32/30 20/34/30 44/63/30
f 18/30/31 43/62/31 44/63/31 17/28/31
f 3/8/32 34/53/32 43/62/32 18/30/32
f 22/38/33 41/60/33 42/61/33 21/36/33
f 5/11/34 36/55/34 41/60/34 22/38/34
f 10/18/35 39/58/35 40/59/35 9/16/35
f 1/2/36 33/51/36 39/58/36 10/18/36
f 14/24/37 37/56/37 38/57/37 13/23/37
f 7/13/38 35/54/38 37/56/38 14/24/38
f 21/36/39 42/61/39 33/52/39 1/3/39
f 13/23/40 38/57/40 36/55/40 5/11/40
f 17/28/41 44/63/41 35/54/41 7/13/41
f 9/16/42 40/59/42 34/53/42 3/8/42
